HIERARCHY
ROOT Hips
{
	OFFSET 0.00000 0.00000 0.00000
	CHANNELS 6 Xposition Yposition Zposition Zrotation Yrotation Xrotation 
	JOINT LHipJoint
	{
		OFFSET 0 0 0
		CHANNELS 3 Zrotation Yrotation Xrotation
		JOINT LeftHip
		{
			OFFSET 1.49846 -1.74315 1.08250
			CHANNELS 3 Zrotation Yrotation Xrotation
			JOINT LeftKnee
			{
				OFFSET 2.40966 -6.62050 0.00000
				CHANNELS 3 Zrotation Yrotation Xrotation
				JOINT LeftAnkle
				{
					OFFSET 2.68066 -7.36505 0.00000
					CHANNELS 3 Zrotation Yrotation Xrotation
					JOINT LeftToe
					{
						OFFSET 0.14291 -0.39265 2.35870
						CHANNELS 3 Zrotation Yrotation Xrotation
						End Site
						{
							OFFSET 0.00000 -0.00000 1.20470
						}
					}
				}
			}
		}
	}
	JOINT RHipJoint
	{
		OFFSET 0 0 0
		CHANNELS 3 Zrotation Yrotation Xrotation
		JOINT RightHip
		{
			OFFSET -1.46318 -1.74316 1.08250
			CHANNELS 3 Zrotation Yrotation Xrotation
			JOINT RightKnee
			{
				OFFSET -2.39759 -6.58734 0.00000
				CHANNELS 3 Zrotation Yrotation Xrotation
				JOINT RightAnkle
				{
					OFFSET -2.63570 -7.24154 0.00000
					CHANNELS 3 Zrotation Yrotation Xrotation
					JOINT RightToe
					{
						OFFSET -0.17578 -0.48294 2.47180
						CHANNELS 3 Zrotation Yrotation Xrotation
						End Site
						{
							OFFSET -0.00000 -0.00000 1.26600
						}
					}
				}
			}
		}
	}
	JOINT lowerback
	{
		OFFSET 0 0 0
		CHANNELS 3 Zrotation Yrotation Xrotation
		JOINT Chest
		{
			OFFSET 0.00843 2.19877 -0.20423
			CHANNELS 3 Zrotation Yrotation Xrotation
			JOINT Chest2
			{
				OFFSET -0.03080 2.21436 -0.05138
				CHANNELS 3 Zrotation Yrotation Xrotation
				JOINT lowerneck
				{
					OFFSET 0 0 0
					CHANNELS 3 Zrotation Yrotation Xrotation
					JOINT Neck
					{
						OFFSET -0.04063 1.58841 0.30440
						CHANNELS 3 Zrotation Yrotation Xrotation
						JOINT Head
						{
							OFFSET 0.09277 1.59484 -0.39337
							CHANNELS 3 Zrotation Yrotation Xrotation
							End Site
							{
								OFFSET 0.03488 1.66530 -0.17040
							}
						}
					}
				}
				JOINT LeftCollar
				{
					OFFSET 0 0 0
					CHANNELS 3 Zrotation Yrotation Xrotation
					JOINT LeftShoulder
					{
						OFFSET 3.03849 1.31522 0.02556
CHANNELS 3 Zrotation Xrotation Yrotation
						JOINT LeftElbow
						{
OFFSET 0 -5.255370 0.000000
CHANNELS 3 Zrotation Xrotation Yrotation
							JOINT LeftWrist
							{
OFFSET 0 -3.388550 -0.000000
CHANNELS 3 Zrotation Xrotation Yrotation
								JOINT lhand
								{
									OFFSET 0 0 0
CHANNELS 3 Zrotation Xrotation Yrotation
									JOINT LFingers
									{
OFFSET 0 -0.614520 0.000000
CHANNELS 3 Zrotation Xrotation Yrotation
										End Site
										{
OFFSET 0 -0.495440 0.000000
										}
									}
								}
								JOINT LThumb
								{
OFFSET 0 0.000000 0.000000
CHANNELS 3 Zrotation Xrotation Yrotation
									End Site
									{
OFFSET 0 -0.503000 0.503000
									}
								}
							}
						}
					}
				}
				JOINT RightCollar
				{
					OFFSET 0 0 0
					CHANNELS 3 Zrotation Yrotation Xrotation
					JOINT RightShoulder
					{
						OFFSET -3.06926 1.12091 -0.13185
CHANNELS 3 Zrotation Xrotation Yrotation
						JOINT RightElbow
						{
OFFSET 0 -5.381830 0.000000
CHANNELS 3 Zrotation Xrotation Yrotation
							JOINT RightWrist
							{
OFFSET 0 -3.169880 0.000000
CHANNELS 3 Zrotation Xrotation Yrotation
								JOINT rhand
								{
									OFFSET 0 0 0
CHANNELS 3 Zrotation Xrotation Yrotation
									JOINT RFingers
									{
OFFSET 0 -0.637680 0.000000
CHANNELS 3 Zrotation Xrotation Yrotation
										End Site
										{
OFFSET 0 -0.514110 0.000000
										}
									}
								}
								JOINT RThumb
								{
OFFSET 0 0.000000 0.000000
CHANNELS 3 Zrotation Xrotation Yrotation
									End Site
									{
OFFSET 0 -0.521960 0.521960
									}
								}
							}
						}
					}
				}
			}
		}
	}
}
MOTION
Frames: 6
Frame Time: 0.008333333333333333
4.468088 11.476329 24.799823 -0.975193 -5.180579 101.132235 0.000000 0.000000 0.000000 -13.195989 -13.221276 -22.819271 2.699825 10.192573 29.602513 -0.182835 7.705600 -1.216639 0.050647 -1.452026 -3.993425 0.000000 0.000000 0.000000 17.644998 9.096430 -20.144979 -2.549741 -9.927782 28.743118 0.127947 -7.950515 -8.031669 -0.007094 0.544195 -1.495416 -4.488672 0.918917 1.894663 -0.693708 0.814347 -11.774411 1.615515 0.869422 -13.986070 -9.850578 -6.021669 -23.716389 7.711009 -6.575834 16.133928 3.298904 -2.807251 9.576777 0.000000 0.000000 0.000000 48.799544 -51.591751 -7.389056 50.669189 -53.261845 26.709502 19.409566 3.124687 -5.510706 0.000000 0.000000 0.000000 -7.125000 0.000000 0.000000 -6.096266 35.765547 -1.391036 0.000000 0.000000 0.000000 -59.904141 -48.377131 6.835892 -42.508794 -49.487968 -20.326549 -24.086528 -12.174948 -9.456467 0.000000 0.000000 0.000000 7.125000 0.000000 0.000000 2.048937 19.643501 1.241742
4.471265 11.474759 24.785282 -0.972209 -5.106005 101.168593 0.000000 0.000000 0.000000 -13.357515 -12.908149 -23.094681 2.734666 10.252614 29.798613 -0.167723 7.382969 -1.160853 0.049670 -1.438393 -3.955894 0.000000 0.000000 0.000000 17.959401 9.032465 -20.398826 -2.569396 -9.962992 28.857036 0.120358 -7.725037 -7.817356 -0.010477 0.660481 -1.815017 -4.249841 0.935194 1.506673 -0.816819 0.868062 -11.737683 1.347138 0.855251 -13.686696 -9.797957 -5.968547 -24.354695 8.024874 -6.561781 16.706596 3.404362 -2.745228 9.899699 0.000000 0.000000 0.000000 58.292097 -55.480387 -1.751306 50.089501 -53.031454 26.245674 17.196951 4.292082 -2.382639 0.000000 0.000000 0.000000 -7.125000 0.000000 0.000000 -7.578897 32.411598 -2.354954 0.000000 0.000000 0.000000 -67.526589 -51.993095 1.114536 -42.017675 -49.220852 -19.953953 -22.300841 -10.659558 -9.625787 0.000000 0.000000 0.000000 7.125000 0.000000 0.000000 3.329244 19.601278 2.022877
4.475695 11.477630 24.789449 -1.040608 -4.981460 101.280070 0.000000 0.000000 0.000000 -13.410613 -12.653848 -23.380004 2.752243 10.282774 29.897459 -0.168542 7.399154 -1.173993 0.040881 -1.304339 -3.586509 0.000000 0.000000 0.000000 18.204788 8.953817 -20.798985 -2.594860 -10.008396 29.003966 0.116447 -7.447238 -7.362381 -0.013088 0.739118 -2.031353 -4.262569 1.074981 1.063922 -0.869426 1.085167 -11.831731 1.272894 0.961789 -13.533822 -9.591873 -5.995297 -24.657052 7.990963 -6.672077 17.391097 3.344973 -2.776126 10.199752 0.000000 0.000000 0.000000 69.199379 -59.100798 4.977694 48.221741 -52.252157 24.761081 15.455274 4.730531 -0.629749 0.000000 0.000000 0.000000 -7.125000 0.000000 0.000000 -8.792072 30.567132 -3.132103 0.000000 0.000000 0.000000 -76.380032 -54.759701 -5.343680 -40.607787 -48.425622 -18.892779 -21.226101 -11.065010 -10.195390 0.000000 0.000000 0.000000 7.125000 0.000000 0.000000 4.108462 19.074984 2.546810
4.479918 11.483507 24.810351 -1.079709 -4.805219 101.365603 0.000000 0.000000 0.000000 -13.308501 -12.697796 -23.550060 2.764053 10.302877 29.963326 -0.172342 7.466504 -1.261663 0.039153 -1.276890 -3.510921 0.000000 0.000000 0.000000 18.375039 8.939189 -21.075591 -2.600494 -10.018389 29.036331 0.114147 -7.256594 -7.030215 -0.014606 0.780795 -2.145787 -4.297040 1.218285 0.621810 -0.911282 1.306842 -11.956363 1.223467 1.075763 -13.420275 -9.352806 -6.136259 -24.852794 7.733233 -6.917063 18.229483 3.177672 -2.893159 10.541910 0.000000 0.000000 0.000000 81.743465 -62.081313 13.208119 44.973257 -50.753891 22.218480 14.339939 5.238001 -0.062675 0.000000 0.000000 0.000000 -7.125000 0.000000 0.000000 -9.610034 29.972155 -3.569067 0.000000 0.000000 0.000000 -86.063879 -56.720536 -12.456035 -38.249873 -46.997267 -17.148374 -19.916516 -11.444056 -10.658187 0.000000 0.000000 0.000000 7.125000 0.000000 0.000000 5.045047 18.685266 3.175189
4.482883 11.486717 24.843531 -1.152449 -4.691391 101.520386 0.000000 0.000000 0.000000 -13.212946 -12.867435 -23.675234 2.756143 10.289440 29.919235 -0.183579 7.683016 -1.422813 0.037558 -1.251263 -3.440507 0.000000 0.000000 0.000000 18.310579 9.152652 -21.302153 -2.602107 -10.021290 29.045716 0.113500 -7.317722 -7.191603 -0.011229 0.685258 -1.883167 -4.360274 1.306148 0.191334 -0.999406 1.440358 -12.133031 1.150747 1.147501 -13.372014 -9.089950 -6.292071 -25.036543 7.531467 -7.202789 18.991586 3.016998 -3.019199 10.862178 0.000000 0.000000 0.000000 95.166347 -63.817053 22.008656 40.980229 -48.639064 19.172048 14.345600 5.037140 0.223368 0.000000 0.000000 0.000000 -7.125000 0.000000 0.000000 -9.577681 29.681918 -3.623967 0.000000 0.000000 0.000000 -95.879582 -57.763789 -19.119110 -35.668191 -45.282957 -15.286418 -18.435842 -12.041901 -10.778834 0.000000 0.000000 0.000000 7.125000 0.000000 0.000000 6.092163 18.668572 3.843325
4.487284 11.478909 24.887224 -1.294505 -4.684923 101.708002 0.000000 0.000000 0.000000 -13.264543 -12.898779 -23.760742 2.728893 10.242705 29.766347 -0.194884 7.923231 -1.417903 0.033570 -1.182242 -3.250426 0.000000 0.000000 0.000000 17.986947 9.540278 -21.420056 -2.604705 -10.025770 29.060250 0.113195 -7.616006 -7.838103 -0.007175 0.545038 -1.497574 -4.419696 1.312018 -0.201164 -1.098392 1.452659 -12.308517 1.078871 1.157025 -13.338676 -8.968586 -6.381595 -25.281743 7.483312 -7.371715 19.594909 2.952583 -3.082298 11.139082 0.000000 0.000000 0.000000 108.053203 -64.163427 30.576460 36.959950 -46.159912 16.211834 13.403933 4.924372 0.943540 0.000000 0.000000 0.000000 -7.125000 0.000000 0.000000 -10.236869 28.942874 -4.063663 0.000000 0.000000 0.000000 -105.208981 -57.988379 -24.545898 -33.229684 -43.504879 -13.580214 -16.895460 -12.567558 -10.819297 0.000000 0.000000 0.000000 7.125000 0.000000 0.000000 7.178560 18.733936 4.528337
